<?xml version="1.0" encoding="utf-8"?>
<!-- Generator: Adobe Illustrator 24.0.2, SVG Export Plug-In . SVG Version: 6.00 Build 0)  -->
<svg version="1.1" id="Layer_1" xmlns="http://www.w3.org/2000/svg" xmlns:xlink="http://www.w3.org/1999/xlink" x="0px" y="0px"
	 viewBox="0 0 166 166" style="enable-background:new 0 0 166 166;" xml:space="preserve">
<style type="text/css">
	.st0{fill:#000333;stroke:#000333;stroke-miterlimit:10;}
	.st1{fill:#fdcab8;stroke:#000333;stroke-width:4;stroke-linecap:round;stroke-miterlimit:10;}
</style>
<title>mjk_logo</title>
<g>
	<path class="st0" d="M33.3,50.8l3.4,14.4c0.2,0.8,1.1,1.2,1.9,1c0.6-0.2,1-0.7,1.1-1.4c0-2.4,0.3-4.8,0.9-7.2
		c0.5-2.1,1.2-4.6,2.6-6.3c0.6-0.8,1.6-1.3,2.3-0.3c0.6,1,1,2.2,1.2,3.3c0.7,2.3,1,4.8,1,7.2c-0.1,0.8,0.5,1.6,1.3,1.7
		c0.8,0.1,1.6-0.5,1.7-1.3l0,0c1-3.7,2.5-7.3,4.3-10.8c1.1-1.9,3.7-6.6,6.5-4.6s1.5,6.7,1.2,9.5s0.2,6.4,2.8,8.3
		c3.1,2.3,7.1,0.8,9.8-1.4c1.4-1.3-0.7-3.4-2.1-2.1c-2.3,2-6.2,2.6-7.2-1s0.8-7.2,0.2-10.8c-0.5-2.9-2.7-5.8-5.8-5.8
		c-3.4-0.1-5.9,3-7.4,5.7c-2.2,3.9-3.9,8-5.1,12.3l2.9,0.4c0-3.3-0.6-6.6-1.7-9.7c-0.5-1.3-1-2.9-2.3-3.8c-1.2-0.8-2.7-0.8-4-0.2
		C40,49,38.9,52.5,38,55.1c-1,3.1-1.5,6.4-1.5,9.7l2.9-0.4L36.2,50C35.8,48.1,32.9,48.9,33.3,50.8z"/>
	<path class="st0" d="M118.9,45.8c0.8,0,1.5-0.7,1.5-1.5s-0.7-1.5-1.5-1.5s-1.5,0.7-1.5,1.5S118.1,45.8,118.9,45.8z"/>
	<path class="st0" d="M118.7,54.7c0.7,2.9,1.1,5.9,1.1,8.9c0.1,2.4,0,5.1-1.7,7c-1.3,1.6-3.3,2.3-5.1,1.1s-2.9-3.3-3.8-5.1
		s-3.5-0.2-2.6,1.5c1.2,2.4,2.7,4.9,5.1,6.3c2.6,1.4,5.9,1,8-1.1c2.4-2.2,3.1-5.5,3.1-8.6c0-3.7-0.4-7.3-1.3-10.8
		C121.2,52,118.3,52.8,118.7,54.7L118.7,54.7z"/>
	<path class="st0" d="M88.6,58.3c-3.8,15.1-7.6,30.4-15.2,44.1c-0.9,1.7,1.7,3.2,2.6,1.5c7.7-13.9,11.7-29.4,15.5-44.8
		C92,57.2,89.1,56.4,88.6,58.3z"/>
	<path class="st0" d="M85.2,90.3L82,91.8c-1,0.4-2,0.9-2.9,1.6c-0.8,0.7-1.2,1.8-1,2.8c0.3,1.1,0.9,2,1.8,2.8c3,3.4,6.2,6.6,9.6,9.6
		c1.4,1.3,3.6-0.8,2.1-2.1c-2.9-2.5-5.6-5.2-8.2-8c-0.6-0.7-1.3-1.4-1.9-2.1c-0.1-0.2-0.4-0.5-0.4-0.7s-0.1,0.1,0,0s0.2-0.1,0.3-0.2
		c1.7-0.9,3.5-1.7,5.3-2.6c0.7-0.4,1-1.3,0.6-2C86.9,90.1,86,89.8,85.2,90.3C85.3,90.3,85.2,90.3,85.2,90.3L85.2,90.3z"/>
	<path class="st0" d="M32,106.3c5.6-0.3,11.2-0.9,16.7-1.9c0.8-0.2,1.2-1.1,1-1.8c-0.3-0.8-1.1-1.2-1.8-1
		c-5.3,0.9-10.6,1.5-15.9,1.8C30,103.4,30,106.4,32,106.3L32,106.3z"/>
	<path class="st0" d="M37.4,106.5c2.4,7.8,7,14.7,13.3,20c6.4,5.2,13.8,8.8,21.8,10.6c16.2,4,34.4,2.4,47.8-8.2
		c6.7-5.2,11.5-12.4,13.7-20.5c0.5-1.9-2.4-2.7-2.9-0.8c-3.7,14.3-16.5,24.2-30.5,27.2c-8,1.7-16.2,1.7-24.2,0
		c-7.6-1.4-14.9-4.3-21.2-8.7c-7-5-12.2-12.2-14.8-20.5C39.8,103.9,36.9,104.7,37.4,106.5L37.4,106.5z"/>
	<path class="st0" d="M127.3,107.8l12.8,1.6c0.8,0.1,1.5-0.8,1.5-1.5c0-0.8-0.7-1.5-1.5-1.5l-12.8-1.6c-0.8,0-1.5,0.7-1.5,1.5
		C125.8,107.1,126.4,107.7,127.3,107.8z"/>
</g>
<circle class="st1" cx="83" cy="83" r="81"/>
</svg>
